<?xml version="1.0" encoding="UTF-8"?>
<svg id="Layer_1" data-name="Layer 1" xmlns="http://www.w3.org/2000/svg" viewBox="0 0 439.43 439.43">
  <defs>
    <style>
      .cls-1 {
        opacity: .98;
      }

      .cls-2 {
        fill: #f7911e;
      }

      .cls-2, .cls-3 {
        stroke-width: 0px;
      }

      .cls-3 {
        fill: #fff;
      }
    </style>
  </defs>
  <circle class="cls-2" cx="219.71" cy="219.71" r="219.71"/>
  <g class="cls-1">
    <path class="cls-3" d="M231.63,76.55c34.13,0,59.64,7.57,76.54,22.71,16.9,15.14,25.35,39.02,25.35,71.65v186.96h-36.14l-9.79-40.15h-2.01c-7.7,10.04-15.73,18.41-24.09,25.09-8.37,6.69-18.03,11.71-28.99,15.06-10.96,3.35-24.3,5.02-40.03,5.02-16.73,0-31.62-3.01-44.67-9.03-13.05-6.02-23.3-15.1-30.74-27.23-7.45-12.13-11.17-27.56-11.17-46.3,0-28.11,10.79-49.44,32.37-63.99,21.58-14.56,54.29-22.5,98.12-23.84l47.68-2.01v-15.56c0-21.58-4.81-36.8-14.43-45.67-9.62-8.87-23.05-13.3-40.28-13.3-14.22,0-27.86,2.05-40.91,6.15-13.05,4.1-25.6,9-37.64,14.68l-16.06-36.64c13.05-6.69,27.9-12.3,44.54-16.81,16.65-4.52,34.09-6.78,52.32-6.78ZM283.58,223.6l-38.65,1.76c-31.96,1.17-54.42,6.49-67.38,15.94-12.97,9.45-19.45,22.63-19.45,39.52,0,14.72,4.43,25.52,13.3,32.37,8.87,6.86,20.58,10.29,35.13,10.29,22.42,0,40.86-6.31,55.33-18.95,14.47-12.63,21.71-31.33,21.71-56.09v-24.84Z"/>
  </g>
</svg>